<?xml version="1.0" encoding="utf-8"?>
<!-- Generator: Adobe Illustrator 27.5.0, SVG Export Plug-In . SVG Version: 6.00 Build 0)  -->
<svg version="1.1" xmlns="http://www.w3.org/2000/svg" xmlns:xlink="http://www.w3.org/1999/xlink" x="0px" y="0px"
	 viewBox="0 0 750 500" style="enable-background:new 0 0 750 500;" xml:space="preserve">
<g id="BACKGROUND">
	<rect style="fill:#FFFFFF;" width="750" height="500"/>
</g>
<g id="OBJECTS">
	<g>
		<g>
			<g>
				
					<text transform="matrix(1 0 0 1 199.7007 66.0593)" style="fill:#676B78; font-family:'OpenSans-Bold'; font-size:30.3849px; letter-spacing:7;">INDONESIA MAP</text>
			</g>
			<g>
				
					<text transform="matrix(1 0 0 1 262.5981 100.0115)" style="fill:#676B78; font-family:'OpenSans'; font-size:23.8461px; letter-spacing:6;">INFOGRAPHIC</text>
			</g>
		</g>
		<g>
			<g>
				
					<line style="fill:none;stroke:#676B78;stroke-width:0.7502;stroke-linecap:round;stroke-linejoin:round;stroke-miterlimit:10;stroke-dasharray:1.9635;" x1="65.19" y1="424.129" x2="684.81" y2="424.129"/>
				<g>
					<g>
						<text transform="matrix(1 0 0 1 68.4799 443.4587)" style="fill:#FE186E; font-family:'OpenSans-Bold'; font-size:9.7209px;">SUMATRA</text>
						<g>
							<rect x="55.68" y="447.593" style="fill:none;" width="77.623" height="12.386"/>
							<text transform="matrix(1 0 0 1 55.7128 450.6189)"><tspan x="0" y="0" style="fill:#676B78; font-family:'OpenSans'; font-size:3.9822px;">Lorem ipsum dolor sit amet, consectetuer </tspan><tspan x="1.895" y="4.778" style="fill:#676B78; font-family:'OpenSans'; font-size:3.9822px;">adipiscing elit, sed diam nonummy nibh  </tspan></text>
						</g>
					</g>
					<g>
						<g>
							
								<circle style="fill:#FFFFFF;stroke:#FE186E;stroke-width:1.6372;stroke-linecap:round;stroke-linejoin:round;stroke-miterlimit:10;" cx="94.492" cy="393.795" r="17.516"/>
							
								<text transform="matrix(1 0 0 1 86.5751 403.032)" style="fill:#FE186E; font-family:'OpenSans-Bold'; font-size:24.7449px; letter-spacing:1;">1</text>
							<polygon style="fill:#FE186E;" points="89.018,410.417 99.965,410.417 94.492,416.21 							"/>
						</g>
						<path style="fill:#FE186E;" d="M97.266,424.711c0,1.532-1.242,2.775-2.774,2.775s-2.774-1.242-2.774-2.775
							c0-1.532,1.242-2.775,2.774-2.775S97.266,423.178,97.266,424.711z"/>
					</g>
				</g>
				<g>
					<g>
						
							<text transform="matrix(1 0 0 1 175.5392 443.4587)" style="fill:#0073B6; font-family:'OpenSans-Bold'; font-size:9.7209px;">JAVA</text>
						<g>
							<rect x="149.183" y="447.593" style="fill:none;" width="77.623" height="12.386"/>
							<text transform="matrix(1 0 0 1 149.2153 450.6189)"><tspan x="0" y="0" style="fill:#676B78; font-family:'OpenSans'; font-size:3.9822px;">Lorem ipsum dolor sit amet, consectetuer </tspan><tspan x="1.895" y="4.778" style="fill:#676B78; font-family:'OpenSans'; font-size:3.9822px;">adipiscing elit, sed diam nonummy nibh  </tspan></text>
						</g>
					</g>
					<g>
						<g>
							
								<circle style="fill:#FFFFFF;stroke:#0073B6;stroke-width:1.6372;stroke-linecap:round;stroke-linejoin:round;stroke-miterlimit:10;" cx="187.995" cy="393.795" r="17.516"/>
							
								<text transform="matrix(1 0 0 1 180.0789 403.032)" style="fill:#0073B6; font-family:'OpenSans-Bold'; font-size:24.7449px; letter-spacing:1;">2</text>
							<polygon style="fill:#0073B6;" points="182.521,410.417 193.468,410.417 187.995,416.21 							"/>
						</g>
						<circle style="fill:#0073B6;" cx="187.995" cy="424.711" r="2.774"/>
					</g>
				</g>
				<g>
					<g>
						
							<text transform="matrix(1 0 0 1 245.2001 443.4592)" style="fill:#00A80B; font-family:'OpenSans-Bold'; font-size:9.7209px;">KALIMANTAN</text>
						<g>
							<rect x="242.686" y="447.593" style="fill:none;" width="77.624" height="12.386"/>
							<text transform="matrix(1 0 0 1 242.7182 450.6189)"><tspan x="0" y="0" style="fill:#676B78; font-family:'OpenSans'; font-size:3.9822px;">Lorem ipsum dolor sit amet, consectetuer </tspan><tspan x="1.895" y="4.778" style="fill:#676B78; font-family:'OpenSans'; font-size:3.9822px;">adipiscing elit, sed diam nonummy nibh  </tspan></text>
						</g>
					</g>
					<g>
						<g>
							
								<circle style="fill:#FFFFFF;stroke:#00A80B;stroke-width:1.6372;stroke-linecap:round;stroke-linejoin:round;stroke-miterlimit:10;" cx="281.497" cy="393.795" r="17.516"/>
							
								<text transform="matrix(1 0 0 1 273.5805 403.032)" style="fill:#00A80B; font-family:'OpenSans-Bold'; font-size:24.7449px; letter-spacing:1;">3</text>
							<polygon style="fill:#00A80B;" points="276.024,410.417 286.971,410.417 281.497,416.21 							"/>
						</g>
						<path style="fill:#00A80B;" d="M284.272,424.711c0,1.532-1.242,2.775-2.775,2.775c-1.532,0-2.774-1.242-2.774-2.775
							c0-1.532,1.242-2.775,2.774-2.775C283.03,421.936,284.272,423.178,284.272,424.711z"/>
					</g>
				</g>
				<g>
					<g>
						
							<text transform="matrix(1 0 0 1 362.6845 443.4587)" style="fill:#FF9400; font-family:'OpenSans-Bold'; font-size:9.7209px;">BALI</text>
						<g>
							<rect x="336.188" y="447.593" style="fill:none;" width="77.624" height="12.386"/>
							<text transform="matrix(1 0 0 1 336.2211 450.6189)"><tspan x="0" y="0" style="fill:#676B78; font-family:'OpenSans'; font-size:3.9822px;">Lorem ipsum dolor sit amet, consectetuer </tspan><tspan x="1.895" y="4.778" style="fill:#676B78; font-family:'OpenSans'; font-size:3.9822px;">adipiscing elit, sed diam nonummy nibh  </tspan></text>
						</g>
					</g>
					<g>
						<g>
							
								<circle style="fill:#FFFFFF;stroke:#FF9400;stroke-width:1.6372;stroke-linecap:round;stroke-linejoin:round;stroke-miterlimit:10;" cx="375" cy="393.795" r="17.516"/>
							
								<text transform="matrix(1 0 0 1 367.0834 403.032)" style="fill:#FF9400; font-family:'OpenSans-Bold'; font-size:24.7449px; letter-spacing:1;">4</text>
							<polygon style="fill:#FF9400;" points="369.526,410.417 380.473,410.417 375,416.21 							"/>
						</g>
						<circle style="fill:#FF9400;" cx="375" cy="424.711" r="2.775"/>
					</g>
				</g>
				<g>
					<g>
						
							<text transform="matrix(1 0 0 1 441.6622 443.4587)" style="fill:#731B83; font-family:'OpenSans-Bold'; font-size:9.7209px;">SULAWESI</text>
						<g>
							<rect x="429.691" y="447.593" style="fill:none;" width="77.623" height="12.386"/>
							<text transform="matrix(1 0 0 1 429.7231 450.6189)"><tspan x="0" y="0" style="fill:#676B78; font-family:'OpenSans'; font-size:3.9822px;">Lorem ipsum dolor sit amet, consectetuer </tspan><tspan x="1.895" y="4.778" style="fill:#676B78; font-family:'OpenSans'; font-size:3.9822px;">adipiscing elit, sed diam nonummy nibh  </tspan></text>
						</g>
					</g>
					<g>
						<g>
							
								<circle style="fill:#FFFFFF;stroke:#731B83;stroke-width:1.6372;stroke-linecap:round;stroke-linejoin:round;stroke-miterlimit:10;" cx="468.503" cy="393.795" r="17.516"/>
							
								<text transform="matrix(1 0 0 1 460.5868 403.032)" style="fill:#731B83; font-family:'OpenSans-Bold'; font-size:24.7449px; letter-spacing:1;">5</text>
							<polygon style="fill:#731B83;" points="463.029,410.417 473.976,410.417 468.503,416.21 							"/>
						</g>
						<path style="fill:#731B83;" d="M471.277,424.711c0,1.532-1.242,2.775-2.774,2.775c-1.532,0-2.774-1.242-2.774-2.775
							c0-1.532,1.242-2.775,2.774-2.775C470.035,421.936,471.277,423.178,471.277,424.711z"/>
					</g>
				</g>
				<g>
					<g>
						
							<text transform="matrix(1 0 0 1 538.7361 443.4587)" style="fill:#FF41CD; font-family:'OpenSans-Bold'; font-size:9.7209px;">MALUKU</text>
						<g>
							<rect x="523.194" y="447.593" style="fill:none;" width="77.623" height="12.386"/>
							<text transform="matrix(1 0 0 1 523.226 450.6189)"><tspan x="0" y="0" style="fill:#676B78; font-family:'OpenSans'; font-size:3.9822px;">Lorem ipsum dolor sit amet, consectetuer </tspan><tspan x="1.895" y="4.778" style="fill:#676B78; font-family:'OpenSans'; font-size:3.9822px;">adipiscing elit, sed diam nonummy nibh  </tspan></text>
						</g>
					</g>
					<g>
						<g>
							
								<circle style="fill:#FFFFFF;stroke:#FF41CD;stroke-width:1.6372;stroke-linecap:round;stroke-linejoin:round;stroke-miterlimit:10;" cx="562.005" cy="393.795" r="17.516"/>
							
								<text transform="matrix(1 0 0 1 554.0893 403.032)" style="fill:#FF41CD; font-family:'OpenSans-Bold'; font-size:24.7449px; letter-spacing:1;">6</text>
							<polygon style="fill:#FF41CD;" points="556.532,410.417 567.479,410.417 562.005,416.21 							"/>
						</g>
						<circle style="fill:#FF41CD;" cx="562.005" cy="424.711" r="2.774"/>
					</g>
				</g>
				<g>
					<g>
						<text transform="matrix(1 0 0 1 637.347 443.4587)" style="fill:#00B9AE; font-family:'OpenSans-Bold'; font-size:9.7209px;">PAPUA</text>
						<g>
							<rect x="616.696" y="447.593" style="fill:none;" width="77.624" height="12.386"/>
							<text transform="matrix(1 0 0 1 616.7289 450.6189)"><tspan x="0" y="0" style="fill:#676B78; font-family:'OpenSans'; font-size:3.9822px;">Lorem ipsum dolor sit amet, consectetuer </tspan><tspan x="1.895" y="4.778" style="fill:#676B78; font-family:'OpenSans'; font-size:3.9822px;">adipiscing elit, sed diam nonummy nibh  </tspan></text>
						</g>
					</g>
					<g>
						<g>
							
								<circle style="fill:#FFFFFF;stroke:#00B9AE;stroke-width:1.6372;stroke-linecap:round;stroke-linejoin:round;stroke-miterlimit:10;" cx="655.508" cy="393.795" r="17.516"/>
							
								<text transform="matrix(1 0 0 1 647.5922 403.032)" style="fill:#00B9AE; font-family:'OpenSans-Bold'; font-size:24.7449px; letter-spacing:1;">7</text>
							<polygon style="fill:#00B9AE;" points="650.035,410.417 660.982,410.417 655.508,416.21 							"/>
						</g>
						<path style="fill:#00B9AE;" d="M658.283,424.711c0,1.532-1.242,2.775-2.774,2.775s-2.775-1.242-2.775-2.775
							c0-1.532,1.242-2.775,2.775-2.775S658.283,423.178,658.283,424.711z"/>
					</g>
				</g>
			</g>
			<g>
				<g>
					
						<path style="fill:none;stroke:#676B78;stroke-width:1.1059;stroke-linecap:round;stroke-linejoin:round;stroke-miterlimit:10;" d="
						M72.626,158.536c0,0-5.647-5.459-9.6-7.53c-3.953-2.071-4.894-1.694-6.212-6.589c-1.318-4.894-1.694-8.659,0-9.412
						c1.694-0.753,5.271-2.447,6.4,0c1.129,2.447,2.071,2.259,5.459,3.012c3.388,0.753,7.718-0.188,10.542,0.941
						c2.824,1.13,2.635,2.447,5.836,2.447c3.2,0,6.024,0.753,6.777,3.765c0.753,3.012,5.271,2.635,6.024,5.459
						c0.753,2.824-0.565,3.012,1.506,5.836c2.071,2.824,5.459,3.765,10.542,7.153c5.082,3.388,9.6,4.706,11.483,8.094
						c1.882,3.388,6.965,3.2,7.153,5.835c0.188,2.635,1.129,6.024,3.953,6.589c2.824,0.565,2.259-2.824,3.765-2.635
						c1.506,0.188,5.271,3.012,5.459,4.518c0.188,1.506,1.318,3.953,7.341,4.329c6.024,0.376,8,1.412,8.283,4.377
						c0.282,2.965,0.282,2.118,4.8,3.247c4.518,1.13,6.212,2.259,5.365,3.671c-0.847,1.412-2.541,2.683,1.412,3.953
						c3.953,1.271,5.224,6.494,4.518,7.624c-0.706,1.13-1.13,2.259-0.424,3.529c0.706,1.271-2.965,3.671-2.4,5.506
						c0.565,1.835,4.659,4.236,7.624,4.236s4.518,2.682,5.93,7.059c1.412,4.377,2.4,3.953,4.518,5.365
						c2.118,1.412,0.847,1.977,0,4.236s0.565,2.682,2.259,2.682s6.635-3.671,8.189,0c1.553,3.671,2.4,5.083,5.083,6.494
						c2.682,1.412,0.988,6.636,0,9.318c-0.988,2.682-1.553,9.459-0.565,10.871c0.988,1.412-0.471,6.777-0.376,8.659
						c0.094,1.882,1.882,3.388,0.094,7.153c-1.788,3.765-0.753,5.083-3.012,4.235c-2.259-0.847-2.824-1.506-3.388-3.859
						c-0.565-2.353-1.882-3.2-2.824-2.165c-0.941,1.035,1.129,6.893-1.412,6.27c-2.541-0.623-3.106-2.505-5.365-1.941
						c-2.259,0.565-4.047-0.282-6.494-2.071c-2.447-1.788-2.918-3.483-6.871-6.024c-3.953-2.541-8.753-1.129-9.883-5.553
						c-1.129-4.424-1.318-5.177-6.024-9.13c-4.706-3.953-5.365-2.824-7.624-9.036c-2.259-6.212-5.93-3.106-9.789-9.13
						c-3.859-6.024-7.906-5.177-8.377-12.236c-0.471-7.059-4.141-9.977-7.436-16.189c-3.294-6.212-4.33-11.765-10.071-13.365
						c-5.741-1.6-8.471-5.741-7.906-12.142c0.565-6.4-1.6-8.377-5.836-11.765c-4.235-3.388-7.059-4.8-11.012-6.965
						c-3.953-2.165-0.282,0.377-3.859-7.812c-3.577-8.188-6.306-8.565-9.224-9.13C74.038,159.759,72.626,158.536,72.626,158.536z"/>
					
						<path style="fill:none;stroke:#676B78;stroke-width:1.1059;stroke-linecap:round;stroke-linejoin:round;stroke-miterlimit:10;" d="
						M97.851,150.63c0,0-2.635,2.447-3.012,4.33c-0.376,1.882-1.224,0.941-2.447,2.824c-1.224,1.882-0.753,5.082,0,6.871
						c0.753,1.788,0.941,2.071,0.094,3.482c-0.847,1.412,1.225,2.447,2.26,4.141s0.853,8.11,0.853,8.11"/>
					
						<path style="fill:none;stroke:#676B78;stroke-width:1.1059;stroke-linecap:round;stroke-linejoin:round;stroke-miterlimit:10;" d="
						M128.607,178.27c0,0,1.433,6.337-1.108,7.467c-2.541,1.13-0.376,4.706-1.506,5.553c-1.129,0.847-3.2,0.094-2.729,2.259
						c0.471,2.165,0.659,4.706,1.129,5.93c0.471,1.224,0.188,1.412-1.882,1.788c-2.071,0.376-0.471,4.988-1.882,5.083
						c-1.412,0.094-2.541-2.541-4.518-1.788c-1.977,0.753-3.809,2.628-3.809,2.628"/>
					
						<path style="fill:none;stroke:#676B78;stroke-width:1.1059;stroke-linecap:round;stroke-linejoin:round;stroke-miterlimit:10;" d="
						M170.606,222.256c0,0-3.2-1.129-5.365-0.471c-2.165,0.659-0.941,0.659-4.424,2.353c-3.482,1.694-3.671,1.882-6.024,0.565
						c-2.353-1.318-2.071-3.765-4.706-3.765s-3.2,0.847-6.965-0.753c-3.765-1.6-2.541-1.506-4.8-4.706
						c-2.259-3.2-1.318-4.424-5.083-7.341c-3.765-2.918-3.106-0.565-4.8-3.859c-1.694-3.294-4.047-4.8-4.047-4.8"/>
					
						<path style="fill:none;stroke:#676B78;stroke-width:1.1059;stroke-linecap:round;stroke-linejoin:round;stroke-miterlimit:10;" d="
						M136.375,245.204c0,0,3.453-0.994,4.018-2.335c0.565-1.341-1.835-1.624,0-3.741c1.835-2.118,1.765-1.977,3.247-3.953
						c1.482-1.977,0.565-2.965,0.988-4.941c0.423-1.977,1.271-1.624,1.694-3.177c0.424-1.553,0-5.926,0-5.926"/>
					
						<path style="fill:none;stroke:#676B78;stroke-width:1.1059;stroke-linecap:round;stroke-linejoin:round;stroke-miterlimit:10;" d="
						M184.159,233.55c0,0-2.118,2.329-3.953,1.835c-1.835-0.494-2.682-0.777-5.788,0.353c-3.106,1.13-3.035,1.977-3.812,4.165
						c-0.777,2.188-1.341,4.8-2.329,4.235c-0.988-0.565-2.188-3.318-2.965-2.965c-0.777,0.353,0.212,3.247-1.553,3.459
						c-1.765,0.212-2.118-0.071-3.671,1.694c-1.553,1.765-3.812,2.259-5.294,1.906c-1.482-0.353-1.624-1.271-3.6-1.271
						c-1.977,0-1.6,1.694-3.694-0.282c-2.094-1.977-1.882-2.4-3.788-2.4c-1.906,0-3.318-1.412-3.318-1.412"/>
					
						<path style="fill:none;stroke:#676B78;stroke-width:1.1059;stroke-linecap:round;stroke-linejoin:round;stroke-miterlimit:10;" d="
						M174.441,283.069c0,0,2.307-2.012,1.318-4.482c-0.988-2.471,0.565-4.094-2.541-5.224c-3.106-1.13-2.824-1.412-6.918-4.8
						c-4.094-3.388-1.2-4.024-3.6-4.518c-2.4-0.494-1.694-1.765-0.988-3.035s1.2-3.6,0.282-3.671
						c-0.918-0.071-2.894-0.353-3.671-1.2c-0.776-0.847-1.765-1.271-2.329-3.035c-0.565-1.765-1.69-5.023-1.69-5.023"/>
					
						<path style="fill:none;stroke:#676B78;stroke-width:1.1059;stroke-linecap:round;stroke-linejoin:round;stroke-miterlimit:10;" d="
						M203.157,268.056c0,0-3.397-5.422-5.303-5.069c-1.906,0.353-3.53,1.624-4.941,3.741c-1.412,2.118-0.494,3.53-3.812,3.812
						c-3.318,0.282-5.859,0.071-6.635,3.035c-0.776,2.965,0.071,6.141-1.482,6.777c-1.553,0.635-4.978,0-4.978,0"/>
					
						<path style="fill:none;stroke:#676B78;stroke-width:1.1059;stroke-linecap:round;stroke-linejoin:round;stroke-miterlimit:10;" d="
						M198.63,240.397c0,0-4.306,0.847-3.953-0.565c0.353-1.412,1.674-0.353,1.966-2.329c0.293-1.977,0.505-3.177,1.634-3.247
						c1.13-0.071,2.047,1.271,3.247,2.4c1.2,1.13,2.047,0.424,2.188-1.482c0.141-1.906,1.263-0.071,1.938,0.776
						c0.674,0.847,0.604,2.683,1.239,4.024c0.635,1.341,1.271,4.388,2.612,5.23c1.341,0.841,5.083,2.606,5.083,3.665
						s-1.2,2.047,0,3.671c1.2,1.624,0.141,2.612-0.918,1.977c-1.059-0.635-0.071-1.765-3.53-2.541
						c-3.459-0.777-5.065-1.482-5.25-3.177c-0.185-1.694-1.722-3.671-1.73-5.083c-0.008-1.412,0.486-1.94-1.561-2.77
						C199.548,240.115,198.63,240.397,198.63,240.397z"/>
					
						<path style="fill:none;stroke:#676B78;stroke-width:1.1059;stroke-linecap:round;stroke-linejoin:round;stroke-miterlimit:10;" d="
						M227.643,252.398c0,0,0.071-2.824,1.271-3.176c1.2-0.353,2.188-1.271,3.459-0.424c1.271,0.847,3.318,0.494,3.882,2.329
						c0.565,1.835-1.271,5.294-2.4,5.153c-1.129-0.141-1.906-3.247-2.682-2.4c-0.776,0.847-0.918,1.906-2.118,1.765
						C227.855,255.504,227.643,252.398,227.643,252.398z"/>
					
						<path style="fill:none;stroke:#676B78;stroke-width:1.1059;stroke-linecap:round;stroke-linejoin:round;stroke-miterlimit:10;" d="
						M82.226,192.325c0,0,0.353-0.988,2.329-0.635c1.977,0.353,2.4,2.259,4.165,3.812c1.765,1.553,3.812,2.259,2.541,4.8
						c-1.271,2.541-1.341,2.118-2.259,0.494c-0.918-1.624-1.482-3.209-3.318-3.934C83.85,196.137,82.226,192.325,82.226,192.325z"/>
					
						<path style="fill:none;stroke:#676B78;stroke-width:1.1059;stroke-linecap:round;stroke-linejoin:round;stroke-miterlimit:10;" d="
						M72.979,179.125c0,0-3.953-3.247-5.365-3.177c-1.412,0.071-2.4-0.282-3.953-2.047c-1.553-1.765,0.212-2.894,2.118-1.765
						c1.906,1.13,1.694,2.329,4.165,3.6C72.414,177.007,73.614,178.913,72.979,179.125z"/>
					
						<path style="fill:none;stroke:#676B78;stroke-width:1.1059;stroke-linecap:round;stroke-linejoin:round;stroke-miterlimit:10;" d="
						M104.604,231.291c0,0-1.059-1.2-1.13-2.894c-0.071-1.694-0.212-3.459,1.624-3.247c1.835,0.212,1.906,2.188,2.894,4.306
						c0.988,2.118,4.518,5.012,2.824,5.435c-1.694,0.424-3.177,0.777-4.094-0.776C105.804,232.562,104.604,231.291,104.604,231.291z
						"/>
					
						<path style="fill:none;stroke:#676B78;stroke-width:1.1059;stroke-linecap:round;stroke-linejoin:round;stroke-miterlimit:10;" d="
						M198.136,305.835c0,0,3.53-2.118,4.235-3.741c0.706-1.624,1.405-1.553,3.279-3.177c1.874-1.624,0.745-3.953,3.921-2.894
						c3.177,1.059,5.082,1.412,8.753,0.424c3.671-0.988,6.353-1.553,9.036-0.353c2.682,1.2,6.918,2.047,10.589,5.082
						c3.671,3.035,1.482,2.471,4.165,4.659c2.682,2.188,6.353,2.259,10.871,2.259s5.083,0.706,9.742,1.412s6.283-1.271,7.624-2.188
						c1.341-0.918,2.047-4.447,4.447-4.447c2.4,0,1.412,2.259,4.094,2.682c2.682,0.423,4.729-1.271,6.706,0.847
						c1.977,2.118,3.106,0.424,3.812,2.329c0.706,1.906,2.682,1.906,3.388,0.635s4.447-0.494,5.082,0.565
						c0.635,1.059-0.353,3.953,1.624,6c1.977,2.047,1.059,2.894,4.8,3.388c3.741,0.494,6.071,2.259,8.683,2.329
						c2.612,0.071,4.165-1.906,6.988-0.353c2.824,1.553,1.412,1.553,1.835,5.365c0.423,3.812-0.847,2.824,0.494,4.306
						c1.341,1.482,1.412,3.671,0.353,3.177c-1.059-0.494-1.2-1.482-2.965-1.482c-1.765,0-3.671,0.494-6.283-1.059
						c-2.612-1.553-3.106-3.53-7.341-3.812c-4.235-0.282-6.494,1.553-9.812,1.2c-3.318-0.353-3.106-1.129-6.353-1.2
						c-3.247-0.071-9.671-0.635-12.424-0.494c-2.753,0.141-3.459-0.565-6.424-1.906c-2.965-1.341-3.529-2.824-6.353-2.541
						c-2.824,0.282-2.23,0.918-5.386-0.212c-3.156-1.129-2.873-1.553-5.979-1.835c-3.106-0.282-6.494-0.988-9.106-0.282
						c-2.612,0.706-2.541,0.635-5.435,0.918c-2.894,0.282-2.683-0.776-7.483-2.965c-4.8-2.188-5.93-1.341-9.953-1.835
						c-4.024-0.494-4.447-1.172-7.13-1.822c-2.682-0.649-4.659-1.708-3.953-4.39c0.706-2.682-1.835-2.188-3.529-2.965
						c-1.694-0.776-2.965-1.271-4.165-1.129C201.383,306.47,197.476,306.256,198.136,305.835z"/>
					
						<path style="fill:none;stroke:#676B78;stroke-width:1.1059;stroke-linecap:round;stroke-linejoin:round;stroke-miterlimit:10;" d="
						M210.848,313.24c0,0,0.913-2.181,1.619-3.452c0.706-1.271,0.706-0.282,0.706-4.941s0.212-4.8,2.824-4.73
						c2.612,0.071,2.329-3.671,2.329-3.671"/>
					
						<path style="fill:none;stroke:#676B78;stroke-width:1.1059;stroke-linecap:round;stroke-linejoin:round;stroke-miterlimit:10;" d="
						M240.907,321.229c0,0-0.698-2.476,1.066-2.688c1.765-0.212,1.553-1.271,1.412-2.188c-0.141-0.918-1.694-3.318-0.918-3.812
						c0.776-0.494,1.341-2.188,1.482-2.824c0.141-0.635,0.607-2.516,0.607-2.516"/>
					
						<path style="fill:none;stroke:#676B78;stroke-width:1.1059;stroke-linecap:round;stroke-linejoin:round;stroke-miterlimit:10;" d="
						M261.622,323.268c0,0-0.731-2.751,0.681-3.315c1.412-0.565,3.177-0.776,4.094-1.835c0.918-1.059,1.2-3.827,1.271-4.878
						c0.071-1.051,0-4.172,0-4.172"/>
					
						<path style="fill:none;stroke:#676B78;stroke-width:1.1059;stroke-linecap:round;stroke-linejoin:round;stroke-miterlimit:10;" d="
						M284.815,305.75c0,0-1.687-0.086-1.334,3.317c0.353,3.403-0.706,4.846-2.047,5.148c-1.341,0.302-3.529-2.168-3.106,1.29
						c0.424,3.459,1.341,5.083-0.423,6.353c-1.765,1.271-6.182,3.837-6.182,3.837s0.182-3.755-1.301-4.467
						c-1.482-0.711-3.582-3.843-3.582-3.843"/>
					
						<path style="fill:none;stroke:#676B78;stroke-width:1.1059;stroke-linecap:round;stroke-linejoin:round;stroke-miterlimit:10;" d="
						M324.352,326.236c0,0,1.553,1.482,4.024,1.059c2.471-0.423,2.259-3.6,4.518-2.188c2.259,1.412,4.236,1.906,4.941,4.588
						c0.706,2.682,0.706,2.471-1.835,2.824c-2.541,0.353-2.632,0.988-4.705,0c-2.072-0.988-3.696-2.682-5.108-2.612
						C324.776,329.977,324.352,326.236,324.352,326.236z"/>
					
						<path style="fill:none;stroke:#676B78;stroke-width:1.1059;stroke-linecap:round;stroke-linejoin:round;stroke-miterlimit:10;" d="
						M345.388,335.977c0-0.212-0.212-3.741,1.341-5.436c1.553-1.694,1.271-2.612,4.094-2.4c2.824,0.212,3.459-1.2,3.883,1.341
						c0.424,2.541-0.776,2.895-3.035,4.73c-2.259,1.835-3.671,2.117-4.729,2.258C345.883,336.612,345.388,335.977,345.388,335.977z"
						/>
					
						<path style="fill:none;stroke:#676B78;stroke-width:1.1059;stroke-linecap:round;stroke-linejoin:round;stroke-miterlimit:10;" d="
						M356.612,336.492c0,0,0.988-3.197,2.682-3.903s2.188-1.482,4.518-0.988c2.329,0.494,0.918,1.41,3.883,1.446
						c2.965,0.036,4.447,0.389,6.071,0.318c1.624-0.071,0.494-0.635-0.988-1.624c-1.482-0.988-2.894-2.09-3.106-2.845
						c-0.212-0.755-0.141-2.732,1.059-3.014c1.2-0.282,2.965,1.765,4.447,2.612c1.482,0.847,2.894,0.381,4.165,0.402
						c1.271,0.021,1.482,1.145,2.259,2.277c0.776,1.132,3.953-2.397,4.518-1.621c0.565,0.776-1.059,2.54,0.635,3.493
						c1.694,0.954,2.965,1.377,2.047,1.73c-0.918,0.353-2.047-0.281-3.812-0.564c-1.765-0.283-1.835-0.636-2.894,0.635
						c-1.059,1.271-1.977,1.553-2.753,1.271c-0.776-0.282-0.071-3.037-0.776-3.072c-0.706-0.035-2.612,2.224-4.518,2.507
						c-1.906,0.282-2.259-0.494-4.8,0.282c-2.541,0.776-2.753,0.847-5.294,2.047c-2.541,1.2-0.635,1.2-3.318,1.2
						C357.954,339.083,355.784,338.405,356.612,336.492z"/>
					
						<path style="fill:none;stroke:#676B78;stroke-width:1.1059;stroke-linecap:round;stroke-linejoin:round;stroke-miterlimit:10;" d="
						M397.626,333.365c0.142-0.244,2.047-3.247,3.953-2.894c1.906,0.353,1.341,0.141,4.377-0.353c3.035-0.494,5.506,0.353,8.753,1.2
						s3.953-0.324,6.424,0.897c2.471,1.221,3.671,0.347,6.424,0.255s3.953,1.602,6.424,1.46c2.471-0.141,2.118-1.906,4.094-2.894
						c1.977-0.988,1.412-0.212,2.471-1.694c1.059-1.482,1.271-2.471,2.33-2.259c1.059,0.212,0,1.2-1.2,2.541
						c-1.2,1.341,0.424,1.173-1.553,2.846c-1.977,1.672-2.329,1.46-4.024,2.307c-1.694,0.847-3.459-0.212-5.718,0.282
						c-2.259,0.494-3.953,1.765-6.282,1.553c-2.33-0.212-2.471-1.059-5.012-0.353c-2.541,0.706-4.8,2.118-6.706,0.918
						c-1.906-1.2-3.459-1.624-5.577-1.482c-2.118,0.141-2.682,0.565-5.577,0.494C398.331,336.118,396.355,335.554,397.626,333.365z"
						/>
					
						<path style="fill:none;stroke:#676B78;stroke-width:1.1059;stroke-linecap:round;stroke-linejoin:round;stroke-miterlimit:10;" d="
						M444.592,329.083c0.199-0.126,1.177-1.223,1.835,0c0.659,1.224-0.188,1.365-1.318,1.553
						C443.98,330.824,442.521,330.401,444.592,329.083z"/>
					
						<path style="fill:none;stroke:#676B78;stroke-width:1.1059;stroke-linecap:round;stroke-linejoin:round;stroke-miterlimit:10;" d="
						M446.658,331.483c0,0,0.804-1.318,2.922-1.459c2.118-0.141,3.624-3.718,4.941-2.635c1.318,1.082-1.271,0.941-2.871,3.059
						c-1.6,2.118-2.776,2.494-4,2.447C446.427,332.848,446.658,331.483,446.658,331.483z"/>
					
						<path style="fill:none;stroke:#676B78;stroke-width:1.1059;stroke-linecap:round;stroke-linejoin:round;stroke-miterlimit:10;" d="
						M456.592,330.306c0.188,0,0.235-0.247,1.553-0.265c1.318-0.018,1.647-0.928,2.494-1.532c0.847-0.603,1.035,0.808,0.235,1.797
						c-0.8,0.988-1.176,2.024-2.165,2.353s-0.612-1.271-0.988-1.318C457.345,331.295,456.592,330.306,456.592,330.306z"/>
					
						<path style="fill:none;stroke:#676B78;stroke-width:1.1059;stroke-linecap:round;stroke-linejoin:round;stroke-miterlimit:10;" d="
						M463.04,329.594c0,0,0.471-3.157,2.165-2.54c1.694,0.617,2.118,1.087,4.094,0.805c1.977-0.282,4.236-0.111,3.812,0.65
						c-0.423,0.761-2.588,0.667-4.424,0.761c-1.835,0.094-2.259-0.154-3.2,0.323C464.546,330.071,462.927,330.125,463.04,329.594z"
						/>
					
						<path style="fill:none;stroke:#676B78;stroke-width:1.1059;stroke-linecap:round;stroke-linejoin:round;stroke-miterlimit:10;" d="
						M482.993,323.718c0,0,1.224-1.882,3.765-1.788c2.541,0.094,0.094-0.282,4.424-0.847c4.33-0.565,4.518-0.753,4.518,0
						c0,0.753-4.518,1.788-4.988,2.635s-1.694,0.659-3.953,0.471C484.499,324,482.993,323.718,482.993,323.718z"/>
					
						<path style="fill:none;stroke:#676B78;stroke-width:1.1059;stroke-linecap:round;stroke-linejoin:round;stroke-miterlimit:10;" d="
						M394.896,348.66c0,0-4.424,0.565-6.4,0c-1.977-0.565-2.071-4.047,1.035-4.236c3.106-0.188,3.639-0.471,7.702-0.376
						c4.063,0.094,3.216-0.188,5.099,1.788c1.882,1.977,3.671,1.694,5.271,2.071c1.6,0.376,1.224,3.671,3.388,4.894
						s0.847,0.847-2.165,1.412c-3.012,0.565-3.859,1.035-6.118-1.035c-2.259-2.071-2.635-2.824-4.236-3.106
						C396.873,349.789,394.896,348.66,394.896,348.66z"/>
					
						<path style="fill:none;stroke:#676B78;stroke-width:1.1059;stroke-linecap:round;stroke-linejoin:round;stroke-miterlimit:10;" d="
						M450.762,353.554c0.324,0,0.418,1.224,2.018-3.2c1.6-4.424,2.918-9.036,8.189-9.318c5.271-0.282,8.377-2.267,10.353-3.392
						c1.977-1.125,0.659-5.071,5.365-4.745c4.706,0.326,8.659,0.239,12.659,0c4-0.239,11.436-3.439,12.094-1.651
						c0.659,1.788-2.824,2.73-4.518,4.047c-1.694,1.318-2.353,0.471-5.271,3.294c-2.918,2.824-3.577,2.165-9.788,2.071
						c-6.212-0.094-9.224,4.33-12.236,6.683c-3.012,2.353-2.918,8.783-7.812,9.286c-4.894,0.503-8.931,0.344-11.054,0
						C448.639,356.284,450.762,353.554,450.762,353.554z"/>
					
						<path style="fill:none;stroke:#676B78;stroke-width:1.1059;stroke-linecap:round;stroke-linejoin:round;stroke-miterlimit:10;" d="
						M250.326,219.15c0,0,3.388-6.792-1.318-11.961c-4.706-5.169-3.577-11.005-1.506-12.511c2.071-1.506,0.753-10.918,7.341-10.165
						c6.588,0.753,7.53,7.153,12.612,7.153c5.083,0,6.777,1.938,9.036,1.063c2.259-0.875,2.635-7.84,4.329-10.663
						c1.694-2.824,0.188-3.2,5.647-5.647c5.459-2.447,11.859-4.706,17.318-6.588c5.459-1.882,12.236-16.001,16.565-17.883
						s7.906-4.141,11.671-4.33c3.765-0.188,7.53-4.141,7.718-6.024c0.188-1.882-0.565-4.329,3.2-4.894
						c3.765-0.565,4.33-8.659,6.965-10.918c2.635-2.259,5.459-9.412,6.588-9.224c1.13,0.188-0.188,4.706,1.506,4.518
						c1.694-0.188,1.318-2.259,3.765-1.882c2.447,0.377,0.188,3.765,3.577,4.894c3.388,1.13,8.471,3.388,6.589,5.836
						c-1.883,2.447,0,6.4,2.824,5.835c2.824-0.565,4.941,0.188,8.871,1.506c3.93,1.318,5.812,0,6.377,3.388
						c0.565,3.388-2.777,3.953-6.377,3.953c-3.6,0-7.318-3.765-7.906,0.188c-0.588,3.953,3.177,5.271,3.365,6.965
						c0.188,1.694-2.635,1.882-5.459,2.259c-2.824,0.376-5.082,2.259-5.836,4.706c-0.753,2.447,0.376,1.882-3.388,3.953
						c-3.765,2.071,1.318,9.036,4.33,10.73c3.012,1.694,2.635,5.082,3.388,6.588c0.753,1.506,0.376,1.318,0,5.271
						c-0.377,3.953,5.271,4.706,9.224,9.036c3.953,4.33,3.2,6.777,0.565,6.965c-2.635,0.188-3.153-0.753-6.188-1.506
						c-3.035-0.753-2.282-2.447-3.224,1.882c-0.941,4.33-2.259,2.635-5.836,7.718c-3.577,5.083-0.565,9.036-1.318,11.859
						c-0.753,2.824-1.318,1.318-4.894,3.765c-3.577,2.447-1.318,3.388-6.024,5.647c-4.706,2.259-6.024,7.341-5.083,9.977
						c0.941,2.635,1.506,3.255-0.565,7.84c-2.071,4.584-2.447,8.349-0.565,11.173c1.882,2.824,1.129,12.313-0.376,12.18
						c-1.506-0.133,0.941-3.662-1.506-6.227c-2.447-2.565-2.447-1.624-6.589-0.871c-4.141,0.753-16.753,2.871-17.507,0.871
						c-0.753-2,1.096-7.083-4.346-7.083c-5.442,0-11.09,4.894-12.972-0.376c-1.882-5.271-6.212,2.447-9.412,2.071
						c-3.2-0.376-6.212,0.565-8.471,1.506c-2.259,0.941,0.833-9.615-2.219-9.326c-3.052,0.29-1.169-1.404-11.523-1.216
						c-10.353,0.188-9.977,0.565-9.6-4.141c0.376-4.706-1.505-12.989-2.258-16.001c-0.754-3.012-4.142-0.565-6.024-0.565
						s-2.824-2.259-1.318-3.2c1.506-0.941-0.941-6.017-2.635-6.115C249.762,221.032,250.326,219.15,250.326,219.15z"/>
					
						<path style="fill:none;stroke:#676B78;stroke-width:1.1059;stroke-linecap:round;stroke-linejoin:round;stroke-miterlimit:10;" d="
						M339.256,142.873c0,0,2.744,7.663,1.897,11.333c-0.847,3.671,6.353,0.282,11.718,0.706c5.365,0.424,7.765,0.207,10.306,1.021
						c2.541,0.814,5.814,0.593,5.814,0.593"/>
					
						<path style="fill:none;stroke:#676B78;stroke-width:1.1059;stroke-linecap:round;stroke-linejoin:round;stroke-miterlimit:10;" d="
						M252.632,184.701c0,0,6.212,4.8,8.33,10.165c2.118,5.365,2.965,6.212,10.447,5.506c7.483-0.706,8.753-1.835,11.859-1.129
						c3.106,0.706,6.071-4.163,11.577-6.599c5.506-2.436,12.142,6.317,18.636,4.623c6.494-1.694,10.165-1.835,13.977-9.6
						c3.812-7.765,2.824-8.471,6.071-12.989c3.247-4.518,8.122-18.961,8.122-18.961"/>
					
						<path style="fill:none;stroke:#676B78;stroke-width:1.1059;stroke-linecap:round;stroke-linejoin:round;stroke-miterlimit:10;" d="
						M372.119,179.995c0,0-1.741,1.883-4.424,0.612c-2.682-1.271-4.377-2.37-7.483-2.456c-3.106-0.085-8.33-0.616-8.894,2.896
						c-0.565,3.513-2.4,4.924-6.212,6.477c-3.812,1.553-1.694,7.483-9.318,9.036c-7.624,1.553-10.814-4.833-10.814-4.833"/>
					
						<path style="fill:none;stroke:#676B78;stroke-width:1.1059;stroke-linecap:round;stroke-linejoin:round;stroke-miterlimit:10;" d="
						M277.073,251.177c0,0-0.407-4.779,0-7.744c0.407-2.965-1.005-7.206-2.699-9.179c-1.694-1.974,0.988-2.021,9.036-6.233
						c8.047-4.212,4.8-7.741,10.871-7.459c6.071,0.282,5.93,2.682,8.612-1.835c2.682-4.518,0.847-6.494,4.941-7.906
						c4.094-1.412,7.638-2.996,9.036-8.894c1.397-5.898,2.64-6.305,2.64-6.305"/>
					
						<path style="fill:none;stroke:#676B78;stroke-width:1.1059;stroke-linecap:round;stroke-linejoin:round;stroke-miterlimit:10;" d="
						M349.519,246.677c0,0-5.26-3.103-6.813-6.773c-1.553-3.671-3.664-8.612-1.055-9.459c2.608-0.847,1.282-5.197-1.231-7.046
						c-2.514-1.849-6.043,0.128-6.184-3.966c-0.141-4.094,1.835-5.924-2.4-6.138c-4.235-0.215-0.847-5.297-3.247-7.839
						c-2.4-2.541-8.214,1.512-13.213,0.262"/>
					
						<path style="fill:none;stroke:#676B78;stroke-width:1.1059;stroke-linecap:round;stroke-linejoin:round;stroke-miterlimit:10;" d="
						M321.084,259.648c0,0,0.021-2.422,5.668-8.472c5.647-6.05,3.106-10.037,7.059-10.232c3.953-0.195,2.4-5.136,3.812-7.395
						c1.412-2.259,3.023-2.233,3.023-2.233"/>
					
						<path style="fill:none;stroke:#676B78;stroke-width:1.1059;stroke-linecap:round;stroke-linejoin:round;stroke-miterlimit:10;" d="
						M393.578,261.41c0,0-2.541-3.106-4.8-0.753c-2.259,2.353-3.294,2.541-3.671,2.071c-0.376-0.471-1.412-6.024,0-8.094
						s-0.847-5.647,1.318-6.777c2.165-1.13,1.506-6.118,3.106-9.13c1.6-3.012,1.129-4.518,1.694-8.094
						c0.565-3.577,2.824-1.882,4.141-5.553c1.318-3.671,1.788-4.424,3.2-3.388c1.412,1.035-0.094-6.871,1.412-9.883
						c1.506-3.012-0.282-8.471,2.824-8.847c3.106-0.376,3.294,0.471,5.647-0.847c2.353-1.318,1.882-0.753,3.012-2.635
						c1.129-1.882-1.035-3.104,1.506-3.858c2.541-0.754,3.2,0.768,5.459,1.184c2.259,0.415,3.012-0.243,3.671,1.639
						c0.659,1.882,6.306-0.847,11.389,1.412s6.306,1.035,8.377,2.541c2.071,1.506,2.165-1.412,8.189-1.035
						c6.024,0.377,12.33-0.471,13.365-1.694c1.035-1.224,3.294-3.916,5.365-5.488c2.071-1.571,3.2-3.454,4.33-1.76
						c1.129,1.694-1.035,2.558-1.977,4.385c-0.941,1.827-3.106,5.498-4.706,7.192c-1.6,1.694-0.471,2.447-4.706,4.424
						c-4.236,1.977-12.801,1.694-14.589,1.506c-1.788-0.188,0.188-2.447-5.836-2.635c-6.024-0.188-7.906-2.73-11.577-1.412
						c-3.671,1.318-4.047,1.6-7.906,0.941c-3.859-0.659-7.247,1.977-9.883,1.506s-4.329-0.847-6.212-0.094
						c-1.883,0.753-2.353,5.271-3.765,8.753c-1.412,3.482-0.753,6.2,2.259,8.653c3.012,2.453,5.177-0.324,6.024,2.382
						c0.847,2.706,2.918,3.93,5.365,3.835c2.447-0.094,2.541-2.588,4.8-3.835c2.259-1.247,2.447-2.282,4.8-2
						c2.353,0.282,1.788,0.741,4.235-0.382c2.447-1.124,1.13-2.441,5.083-1.971c3.953,0.471,3.671,1.318,5.93,0.094
						c2.259-1.224,4.141-2.541,6.4-1.6c2.259,0.941,2.918,3.765,1.506,4.047c-1.412,0.282-2.353-1.235-4.706-0.571
						c-2.353,0.665-1.694-1.489-3.953,1.705c-2.259,3.195-3.294,4.042-5.836,5.265s-2.095,0.471-4.954,2.447
						c-2.858,1.976-2.011,1.035-4.647,2.541c-2.635,1.506-2.541-0.941-4.141-0.188c-1.6,0.753-1.412,3.482,1.412,4.424
						c2.824,0.941,2.353,0.471,3.388,3.577c1.035,3.106,4.988,3.012,4.988,5.741c0,2.73,3.671,5.271,2.635,5.553
						c-1.035,0.282-1.318,2.071-0.282,4.8c1.035,2.729-0.753,5.365,3.012,6.306c3.765,0.941,4.424,1.13,6.212,3.2
						c1.788,2.071-0.941,3.859-3.577,4.047c-2.635,0.188-4.706,0.376-5.93,2.635c-1.224,2.259-0.094,3.577-3.483,3.482
						c-3.388-0.094-4.235,1.6-5.177-2.729c-0.941-4.33-3.2-2.353-2.259-7.624c0.941-5.271,0.471-1.506-3.294-5.271
						c-3.765-3.765-5.177-6.588-3.765-8.377s3.483-2.918,1.788-4.424c-1.694-1.506-0.471-3.482-5.365-2.635
						c-4.894,0.847-4.988,1.788-5.459,3.388c-0.471,1.6-1.035,1.882,0.282,4.518c1.318,2.635,2.353,3.577,1.412,5.459
						c-0.941,1.882-1.506,3.423-1.977,5.523c-0.471,2.101-0.376,3.23,0.471,5.771c0.847,2.541,1.13,2.635,0.094,5.553
						c-1.035,2.918,0.659,6.306,1.412,8.565c0.753,2.259-1.224,2.259-3.106,2.165c-1.882-0.094-0.565,1.224-4.047,1.694
						c-3.483,0.471-2.353,1.977-5.365-1.224s-2.918-1.788-2.165-4.518c0.753-2.729,0.565-4.612,1.694-6.871
						c1.129-2.259,1.6-7.342,1.506-9.883c-0.094-2.541-1.412-2.729-0.847-5.271C394.896,262.445,393.578,261.41,393.578,261.41z"/>
					
						<path style="fill:none;stroke:#676B78;stroke-width:1.1059;stroke-linecap:round;stroke-linejoin:round;stroke-miterlimit:10;" d="
						M447.98,201.831c0,0-1.224,1.788,0.659,2.918c1.882,1.13,2.352,5.307,2.352,5.307"/>
					
						<path style="fill:none;stroke:#676B78;stroke-width:1.1059;stroke-linecap:round;stroke-linejoin:round;stroke-miterlimit:10;" d="
						M430.795,199.077c0,0-0.604,2.849-4.275,2.754c-3.671-0.094-8.094-3.953-9.883-0.659c-1.788,3.294,2.243,4.8,1.545,5.835"/>
					
						<path style="fill:none;stroke:#676B78;stroke-width:1.1059;stroke-linecap:round;stroke-linejoin:round;stroke-miterlimit:10;" d="
						M395.367,225.079c0,0,1.977,2.73,0.471,5.083c-1.506,2.353,1.035,4.047,2.259,7.059c1.224,3.012,1.318,3.765,0,7.059
						c-1.318,3.294,3.977,0.659,0.953,4.706c-3.024,4.047-2.271,7.436-2.836,9.412c-0.565,1.977-3.672,2.071-3.672,2.071"/>
					
						<path style="fill:none;stroke:#676B78;stroke-width:1.1059;stroke-linecap:round;stroke-linejoin:round;stroke-miterlimit:10;" d="
						M431.854,255.148c0,0-4.957,0.238-6.181-0.892c-1.224-1.129,1.412-3.671-0.941-5.177c-2.353-1.506-2.918-0.847-6.4-3.106
						c-3.482-2.259,0.565-0.847-4.424-3.765c-4.988-2.918-6.777,2.824-8.753-2.259c-1.977-5.083-5.928-1.687-6.635-1.644"/>
					
						<path style="fill:none;stroke:#676B78;stroke-width:1.1059;stroke-linecap:round;stroke-linejoin:round;stroke-miterlimit:10;" d="
						M415.791,252.751c0,0,1.788-1.318,3.2-0.376c1.412,0.941,1.129,1.6,3.294,1.318c2.165-0.282,3.096-0.795,3.096-0.795"/>
					
						<path style="fill:none;stroke:#676B78;stroke-width:1.1059;stroke-linecap:round;stroke-linejoin:round;stroke-miterlimit:10;" d="
						M508.594,217.173c0,0,1.624-3.741,0.635-5.506c-0.988-1.765-1.977-2.259-2.188-3.883c-0.212-1.624-2.682-3.741-2.329-5.506
						c0.353-1.765,1.271-0.635,0.424-3.318c-0.847-2.682-1.271-4.73,0.353-6.071c1.624-1.341,0-3.459,2.471-5.294
						c2.471-1.835,4.518-4.941,4.871-3.812c0.353,1.129-2.541,4.518-2.329,5.153c0.212,0.635,2.188,0.565,1.835,1.765
						c-0.353,1.2-0.918,1.694-0.071,2.965c0.847,1.271-0.141,1.835-1.482,3.6c-1.341,1.765-3.812,2.047-3.035,4.094
						c0.776,2.047,1.553,3.035,3.247,2.259c1.694-0.777,1.482-3.812,2.965-4.094c1.482-0.282,2.33-0.424,2.541-3.177
						c0.212-2.753,1.482-2.118,3.6-2.471c2.118-0.353,3.177,0.212,2.824,1.977c-0.353,1.765-0.635,2.4-2.118,3.812
						c-1.482,1.412-4.165,0.706-4.659,2.471c-0.494,1.765-0.353,2.541,2.118,3.459c2.471,0.918,2.541,0.706,3.106,2.612
						c0.565,1.906,3.318,2.188,2.894,2.965c-0.424,0.777-1.624,0.025-3.035-1.117c-1.412-1.142-1.694-0.719-4.165-1.283
						c-2.471-0.565-3.6-2.188-5.012-1.13c-1.412,1.059-0.847,0.988-0.353,2.965c0.494,1.977-1.624,4.235-0.282,6.565
						s3.53,4.447,3.953,5.859c0.424,1.412,3.106,3.459,2.259,3.529c-0.847,0.071-2.4-0.282-3.283-2.047
						c-0.882-1.765-0.459-1.906-2.365-3.106C510.076,220.208,507.888,217.738,508.594,217.173z"/>
					
						<path style="fill:none;stroke:#676B78;stroke-width:1.1059;stroke-linecap:round;stroke-linejoin:round;stroke-miterlimit:10;" d="
						M500.735,219.573c0,0,0.706-2.259,1.459-1.13c0.753,1.13,0.753,2.353,0,3.2c-0.753,0.847-0.988,0.847-1.224,0
						C500.735,220.797,500.735,219.573,500.735,219.573z"/>
					
						<path style="fill:none;stroke:#676B78;stroke-width:1.1059;stroke-linecap:round;stroke-linejoin:round;stroke-miterlimit:10;" d="
						M504.385,220.203c0.164-0.017,0.539,0.17,1.621-0.301s1.6,0.282,1.6,0.988s-1.95,1.223-1.61,1.929s0.905,0.8,2.081,1.13
						c1.177,0.329,3.247,0.188,2.353,1.082c-0.894,0.894-2.588,1.506-3.624,0.8s-1.129,0.235-2.071-0.612
						c-0.941-0.847,0.147-2.4-0.35-2.941C503.888,221.738,503.252,220.318,504.385,220.203z"/>
					
						<path style="fill:none;stroke:#676B78;stroke-width:1.1059;stroke-linecap:round;stroke-linejoin:round;stroke-miterlimit:10;" d="
						M486.217,258.539c0,0,1.2,0.282,2.329-0.847c1.129-1.129,4.73-1.412,6.706-0.494c1.977,0.918,1.624,2.541,3.883,3.388
						c2.259,0.847,1.765,1.482,0.776,3.106c-0.988,1.624-2.047,2.541-5.012,2.4c-2.965-0.141-4.659-3.247-6-3.6
						C487.558,262.139,484.099,259.739,486.217,258.539z"/>
					
						<path style="fill:none;stroke:#676B78;stroke-width:1.1059;stroke-linecap:round;stroke-linejoin:round;stroke-miterlimit:10;" d="
						M513.818,256.65c0,0-0.282-2.134,3.883-1.993c4.165,0.141,6.635,0.693,8.259-0.007c1.624-0.699,1.553,1.913,2.612,2.407
						c1.059,0.494,3.741-2.932,5.789-2.525c2.047,0.407,4.659,1.678,7.2,1.607c2.541-0.071,4.8-0.706,5.506,2.471
						c0.706,3.177,2.612,2.329,3.812,5.082c1.2,2.753,2.4,4.236,0,4.094c-2.4-0.141-3.035-2.188-6.071-3.177
						c-3.035-0.988-2.4,0.424-4.235-1.694c-1.835-2.118-5.436-3.671-6.141-2.682c-0.706,0.988-0.706,1.192-3.812,0.914
						c-3.106-0.278-1.624-0.984-4.447-1.055c-2.824-0.071-2.753-0.008-3.812,1.055c-1.059,1.063-1.765,0.812-4.659,0.231
						C514.806,260.798,513.818,256.65,513.818,256.65z"/>
					
						<path style="fill:none;stroke:#676B78;stroke-width:1.1059;stroke-linecap:round;stroke-linejoin:round;stroke-miterlimit:10;" d="
						M551.019,231.221c0,0-0.424-2.729-1.624-3.2c-1.2-0.471-2.047-1.385,0.423-1.881c2.471-0.496,2.33-0.849,4.518,0.987
						c2.188,1.835,0.494,3.953-0.424,4.729C552.996,232.632,550.666,232.421,551.019,231.221z"/>
					
						<path style="fill:none;stroke:#676B78;stroke-width:1.1059;stroke-linecap:round;stroke-linejoin:round;stroke-miterlimit:10;" d="
						M557.796,230.585c0.132-0.166,0.565-1.624,0.565-3.388c0-1.765,1.765-2.047,4.518-1.977s3.106-0.282,4.588-0.918
						c1.482-0.635,2.682-3.822,4.73-4.099c2.047-0.277,7.341-1.346,9.106,0c1.765,1.346,3.459,3.323,6.071,4.452
						c2.612,1.129,3.529-1.569,6.282,1.086c2.753,2.655,3.318,1.949,4.024,5.267c0.706,3.318,3.035,2.612,0.918,5.365
						c-2.118,2.753-2.541,3.812-1.624,6.071c0.918,2.259,1.341,5.083,2.188,7.341c0.847,2.259,2.541,4.377,3.106,5.294
						c0.565,0.918,1.482-1.2,1.482-2.683c0-1.482,0.141-3.953,1.2-3.318c1.059,0.635,0.918,3.905,1.129,6.223
						c0.212,2.318,2.471,0.483,2.824,2.389c0.353,1.906,2.682,4.377,5.647,4.377c2.965,0,3.459-0.565,4.165-2.4
						c0.706-1.835,1.2-0.988,3.53-2.541c2.329-1.553,0.565-5.083,3.106-5.859c2.541-0.777,2.471,0.494,3.177-2.612
						c0.706-3.106,2.4-4.235,4.588-3.318c2.188,0.918,5.153,0.635,7.271-0.071c2.118-0.706-1.271-3.812,0.565-5.012
						c1.835-1.2,8.259-6.635,10.024-4.659c1.765,1.977-0.212,1.977,3.388,2.329c3.6,0.353,4.236,1.482,5.789,2.471
						c1.553,0.988,3.741,0.635,7.13,2.259c3.388,1.624,0.424,2.4,4.518,2.965c4.094,0.565,6.283-1.129,8.683,1.059
						c2.4,2.188,2.4,1.765,7.2,2.33c4.8,0.565,6.706,1.976,6.636,3.318c-0.071,1.341,0,88.615,0,88.615s-6.706-3.388-8.024-7.342
						c-1.318-3.953,0-4.706-6.024-5.459c-6.024-0.753-4.518-1.882-8.471-0.941c-3.953,0.941-5.459,0.753-8.471,1.694
						c-3.012,0.941-5.836-0.376-11.483,1.318c-5.647,1.694-3.388-1.694-0.941-5.083c2.447-3.388,3.765-7.53,7.153-7.53
						c3.388,0,5.647,0.941,5.082,4.141s1.129,4.706,3.2,4.518c2.071-0.188-0.753-6.212-0.753-9.412s-2.635-2.071-3.953-5.083
						c-1.318-3.012-1.318-1.129,0.376-5.271c1.694-4.141-6.588-9.036-8.283-12.8c-1.694-3.765,3.388-6.024-4.33-7.718
						c-7.718-1.694-6.588,1.318-13.93-4.894c-7.341-6.212-10.542-5.083-15.247-5.271c-4.706-0.188-6.212,0-11.483-4.894
						c-5.271-4.894-3.953,0.505-9.224-1.912c-5.271-2.417-9.6-1.476-8.471-4.676c1.129-3.2,5.459-5.002,2.635-7.678
						c-2.824-2.676-3.012,1.466-4.33,6.172c-1.318,4.706-0.377,3.705-3.577,6.182c-3.2,2.477-7.153,0.199-6.777-2.897
						c0.377-3.097,0.188-4.791-1.506-6.673c-1.694-1.883-3.765-3.282-6.4-4.935c-2.635-1.653-1.694-3.724,0.753-3.912
						c2.447-0.188,4.141,2.824,8.847,0.941c4.706-1.882,4.518-3.577,7.341-3.388c2.824,0.188,3.2,3.2,5.271,1.506
						c2.071-1.694,3.953-1.882,2.071-3.388c-1.882-1.506-4.894-1.882-8.659-1.882c-3.765,0-2.447-1.506-9.224-0.376
						c-6.777,1.13-6.212,0.288-8.094-1.362s-0.188-3.156-1.694-5.038c-1.506-1.882,0.376-2.259-3.388-2.635
						c-3.765-0.376-7.718,0.376-7.718,0.376S553.536,235.957,557.796,230.585z"/>
					
						<path style="fill:none;stroke:#676B78;stroke-width:1.1059;stroke-linecap:round;stroke-linejoin:round;stroke-miterlimit:10;" d="
						M606.02,254.498c0,0,0.648,5.123,0.648,7.194c0,2.071-1.506,1.412-1.224,2.541c0.282,1.13,7.812,2.447,8.659,2.824
						c0.847,0.376-3.504,5.505-3.504,5.505"/>
					
						<path style="fill:none;stroke:#676B78;stroke-width:1.1059;stroke-linecap:round;stroke-linejoin:round;stroke-miterlimit:10;" d="
						M599.44,300.756c0.663-0.879,1.297-1.748,1.557-2.756c0.565-2.188,0.212-4.588,0.918-5.506
						c0.706-0.918,1.906-1.694,3.106-1.412c1.2,0.282,0.847,3.106,1.13,5.647c0.282,2.541,0.212,4.518-1.482,7.483
						c-1.694,2.965-3.53,5.365-6.001,4.729c-2.206-0.568-1.504-3.682-1.01-5.212C598.018,302.611,598.745,301.678,599.44,300.756z"
						/>
				</g>
				<g>
					<g>
						<g>
							
								<ellipse transform="matrix(0.9239 -0.3827 0.3827 0.9239 -72.9662 77.0119)" style="fill:#FE186E;stroke:#FE186E;stroke-width:0.7529;stroke-linecap:round;stroke-linejoin:round;stroke-miterlimit:10;" cx="157.1" cy="221.919" rx="8.055" ry="8.055"/>
							
								<text transform="matrix(1 0 0 1 153.4609 226.1687)" style="fill:#FFFFFF; font-family:'OpenSans-Bold'; font-size:11.3789px;">1</text>
							<polygon style="fill:#FE186E;" points="154.583,229.563 159.617,229.563 157.1,232.227 							"/>
						</g>
						<path style="fill:#FE186E;" d="M158.376,236.136c0,0.705-0.571,1.276-1.276,1.276s-1.276-0.571-1.276-1.276
							c0-0.705,0.571-1.276,1.276-1.276S158.376,235.431,158.376,236.136z"/>
					</g>
					<g>
						<g>
							
								<ellipse transform="matrix(0.6775 -0.7356 0.7356 0.6775 -143.4559 265.4694)" style="fill:#0073B6;stroke:#0073B6;stroke-width:0.7529;stroke-linecap:round;stroke-linejoin:round;stroke-miterlimit:10;" cx="230.981" cy="296.314" rx="8.055" ry="8.055"/>
							
								<text transform="matrix(1 0 0 1 227.3418 300.5638)" style="fill:#FFFFFF; font-family:'OpenSans-Bold'; font-size:11.3789px;">2</text>
							<polygon style="fill:#0073B6;" points="228.464,303.958 233.498,303.958 230.981,306.622 							"/>
						</g>
						<path style="fill:#0073B6;" d="M232.257,310.531c0,0.705-0.571,1.276-1.276,1.276c-0.705,0-1.276-0.571-1.276-1.276
							c0-0.705,0.571-1.276,1.276-1.276C231.685,309.255,232.257,309.826,232.257,310.531z"/>
					</g>
					<g>
						<g>
							
								<ellipse transform="matrix(0.7403 -0.6722 0.6722 0.7403 -125.2124 305.187)" style="fill:#FF9400;stroke:#FF9400;stroke-width:0.7529;stroke-linecap:round;stroke-linejoin:round;stroke-miterlimit:10;" cx="332.447" cy="314.676" rx="8.055" ry="8.055"/>
							
								<text transform="matrix(1 0 0 1 328.8081 318.9261)" style="fill:#FFFFFF; font-family:'OpenSans-Bold'; font-size:11.3789px;">4</text>
							<polygon style="fill:#FF9400;" points="329.93,322.32 334.964,322.32 332.447,324.984 							"/>
						</g>
						<path style="fill:#FF9400;" d="M333.723,328.893c0,0.705-0.571,1.276-1.276,1.276c-0.705,0-1.276-0.571-1.276-1.276
							c0-0.705,0.571-1.276,1.276-1.276C333.152,327.617,333.723,328.188,333.723,328.893z"/>
					</g>
					<g>
						<g>
							
								<ellipse transform="matrix(0.9231 -0.3846 0.3846 0.9231 -63.8039 137.9548)" style="fill:#00A80B;stroke:#00A80B;stroke-width:1.0213;stroke-miterlimit:10;" cx="313.03" cy="228.508" rx="8.055" ry="8.055"/>
							
								<text transform="matrix(1 0 0 1 309.3906 232.7571)" style="fill:#FFFFFF; font-family:'OpenSans-Bold'; font-size:11.3789px;">3</text>
							<polygon style="fill:#00A80B;" points="310.513,236.151 315.547,236.151 313.03,238.815 							"/>
						</g>
						<path style="fill:#00A80B;" d="M314.305,242.724c0,0.705-0.571,1.276-1.276,1.276c-0.705,0-1.276-0.571-1.276-1.276
							c0-0.705,0.571-1.276,1.276-1.276C313.734,241.449,314.305,242.02,314.305,242.724z"/>
					</g>
					<g>
						<g>
							
								<circle style="fill:#731B83;stroke:#731B83;stroke-width:0.7529;stroke-linecap:round;stroke-linejoin:round;stroke-miterlimit:10;" cx="456.592" cy="191.053" r="8.055"/>
							
								<text transform="matrix(1 0 0 1 452.9531 195.3025)" style="fill:#FFFFFF; font-family:'OpenSans-Bold'; font-size:11.3789px;">5</text>
							<polygon style="fill:#731B83;" points="454.075,198.697 459.109,198.697 456.592,201.36 							"/>
						</g>
						<path style="fill:#731B83;" d="M457.868,205.27c0,0.705-0.571,1.276-1.276,1.276c-0.705,0-1.276-0.571-1.276-1.276
							s0.571-1.276,1.276-1.276C457.297,203.994,457.868,204.565,457.868,205.27z"/>
					</g>
					<g>
						<g>
							
								<ellipse transform="matrix(0.7071 -0.7071 0.7071 0.7071 -19.6031 439.6038)" style="fill:#FF41CD;stroke:#FF41CD;stroke-width:0.7529;stroke-linecap:round;stroke-linejoin:round;stroke-miterlimit:10;" cx="520.847" cy="243.465" rx="8.055" ry="8.055"/>
							
								<text transform="matrix(1 0 0 1 517.208 247.7141)" style="fill:#FFFFFF; font-family:'OpenSans-Bold'; font-size:11.3789px;">6</text>
							<polygon style="fill:#FF41CD;" points="518.33,251.109 523.364,251.109 520.847,253.772 							"/>
						</g>
						<path style="fill:#FF41CD;" d="M522.123,257.682c0,0.705-0.571,1.276-1.276,1.276s-1.276-0.571-1.276-1.276
							c0-0.705,0.571-1.276,1.276-1.276S522.123,256.977,522.123,257.682z"/>
					</g>
					<g>
						<g>
							
								<circle style="fill:#00B9AE;stroke:#00B9AE;stroke-width:0.7529;stroke-linecap:round;stroke-linejoin:round;stroke-miterlimit:10;" cx="660.092" cy="261.856" r="8.055"/>
							
								<text transform="matrix(1 0 0 1 656.4531 266.1048)" style="fill:#FFFFFF; font-family:'OpenSans-Bold'; font-size:11.3789px;">7</text>
							<polygon style="fill:#00B9AE;" points="657.575,269.5 662.609,269.5 660.092,272.163 							"/>
						</g>
						<path style="fill:#00B9AE;" d="M661.368,276.073c0,0.705-0.571,1.276-1.276,1.276s-1.276-0.571-1.276-1.276
							c0-0.705,0.571-1.276,1.276-1.276S661.368,275.368,661.368,276.073z"/>
					</g>
				</g>
			</g>
		</g>
	</g>
</g>
</svg>
